<svg width="30" height="30" viewBox="0 0 30 30" fill="none" xmlns="http://www.w3.org/2000/svg">
<path d="M15 0C6.71371 0 0 6.71371 0 15C0 23.2863 6.71371 30 15 30C23.2863 30 30 23.2863 30 15C30 6.71371 23.2863 0 15 0ZM22.3548 18.9375C22.6391 19.2218 22.6391 19.6815 22.3548 19.9657L19.9597 22.3548C19.6754 22.6391 19.2157 22.6391 18.9315 22.3548L15 18.3871L11.0625 22.3548C10.7782 22.6391 10.3185 22.6391 10.0343 22.3548L7.64516 19.9597C7.36089 19.6754 7.36089 19.2157 7.64516 18.9315L11.6129 15L7.64516 11.0625C7.36089 10.7782 7.36089 10.3185 7.64516 10.0343L10.0403 7.63911C10.3246 7.35484 10.7843 7.35484 11.0685 7.63911L15 11.6129L18.9375 7.64516C19.2218 7.36089 19.6815 7.36089 19.9657 7.64516L22.3609 10.0403C22.6452 10.3246 22.6452 10.7843 22.3609 11.0685L18.3871 15L22.3548 18.9375Z" fill="#E5E7EB" fill-opacity="0.5"/>
</svg>
