<svg width="1018" height="566" viewBox="0 0 1018 566" fill="none" xmlns="http://www.w3.org/2000/svg">
<g filter="url(#filter0_d_41_6)">
<rect x="55" y="41" width="908" height="456" rx="2" fill="#0009BC" fill-opacity="0.5" shape-rendering="crispEdges"/>
</g>
<path d="M174.64 79.704V75.232C174.64 73.1173 175.697 72.06 177.812 72.06H179.216C181.331 72.06 182.388 73.1173 182.388 75.232V79.704C182.388 81.8187 181.331 82.876 179.216 82.876H177.812C175.697 82.876 174.64 81.8187 174.64 79.704ZM177.448 79.964C177.448 80.2067 177.569 80.328 177.812 80.328H179.216C179.459 80.328 179.58 80.2067 179.58 79.964V74.972C179.58 74.7293 179.459 74.608 179.216 74.608H177.812C177.569 74.608 177.448 74.7293 177.448 74.972V79.964ZM179.632 88.96L188.212 71.8L190.812 73.1L182.232 90.26L179.632 88.96ZM188.056 86.828V82.356C188.056 80.2413 189.113 79.184 191.228 79.184H192.632C194.747 79.184 195.804 80.2413 195.804 82.356V86.828C195.804 88.9427 194.747 90 192.632 90H191.228C189.113 90 188.056 88.9427 188.056 86.828ZM190.864 87.088C190.864 87.3307 190.985 87.452 191.228 87.452H192.632C192.875 87.452 192.996 87.3307 192.996 87.088V82.096C192.996 81.8533 192.875 81.732 192.632 81.732H191.228C190.985 81.732 190.864 81.8533 190.864 82.096V87.088ZM202.352 85.008V70.76H205.94V85.372C205.94 86.4467 206.494 87.0447 207.604 87.166V90.26C204.102 90.26 202.352 88.5093 202.352 85.008ZM217.889 90C215.081 90 213.677 88.622 213.677 85.866C213.677 83.11 215.081 81.732 217.889 81.732H221.477V80.224C221.477 79.6693 221.199 79.392 220.645 79.392H215.133V77.442L216.693 76.272H220.853C223.661 76.272 225.065 77.676 225.065 80.484V90H217.889ZM217.265 86.048C217.265 86.6027 217.542 86.88 218.097 86.88H221.477V84.488H218.097C217.542 84.488 217.265 84.7653 217.265 85.32V86.048ZM232.599 90V76.272H240.191C242.999 76.272 244.403 77.676 244.403 80.484V90H240.815V80.224C240.815 79.6693 240.538 79.392 239.983 79.392H236.187V90H232.599ZM251.625 85.788V80.484C251.625 77.676 253.029 76.272 255.837 76.272H263.429V90.988C263.429 93.796 262.025 95.2 259.217 95.2H254.355L252.795 94.03V92.08H259.009C259.564 92.08 259.841 91.8027 259.841 91.248V90H255.837C253.029 90 251.625 88.596 251.625 85.788ZM255.213 86.048C255.213 86.6027 255.49 86.88 256.045 86.88H259.841V79.392H256.045C255.49 79.392 255.213 79.6693 255.213 80.224V86.048ZM175.628 321V307.272H183.22C186.028 307.272 187.432 308.676 187.432 311.484V321H183.844V311.224C183.844 310.669 183.567 310.392 183.012 310.392H179.216V321H175.628ZM198.449 321C195.641 321 194.237 319.622 194.237 316.866C194.237 314.11 195.641 312.732 198.449 312.732H202.037V311.224C202.037 310.669 201.76 310.392 201.205 310.392H195.693V308.442L197.253 307.272H201.413C204.221 307.272 205.625 308.676 205.625 311.484V321H198.449ZM197.825 317.048C197.825 317.603 198.103 317.88 198.657 317.88H202.037V315.488H198.657C198.103 315.488 197.825 315.765 197.825 316.32V317.048ZM213.16 321V307.272H228.812C231.62 307.272 233.024 308.676 233.024 311.484V321H229.436V311.224C229.436 310.669 229.159 310.392 228.604 310.392H224.886V321H221.298V310.392H216.748V321H213.16ZM240.364 316.788V311.484C240.364 308.676 241.768 307.272 244.576 307.272H247.956C250.764 307.272 252.168 308.676 252.168 311.484V315.462H243.952V317.048C243.952 317.603 244.229 317.88 244.784 317.88H251.648V319.83L250.088 321H244.576C241.768 321 240.364 319.596 240.364 316.788ZM243.952 312.706H248.58V311.224C248.58 310.669 248.303 310.392 247.748 310.392H244.784C244.229 310.392 243.952 310.669 243.952 311.224V312.706ZM259.137 319.83V317.88H265.117C265.706 317.88 266.001 317.551 266.001 316.892C266.001 316.216 265.758 315.835 265.273 315.748L262.465 315.28C260.246 314.899 259.137 313.616 259.137 311.432C259.137 308.659 260.541 307.272 263.349 307.272H267.379L268.939 308.442V310.392H263.557C262.968 310.392 262.673 310.721 262.673 311.38C262.673 312.073 262.942 312.463 263.479 312.55L266.261 313.018C268.462 313.382 269.563 314.647 269.563 316.814C269.563 319.605 268.15 321 265.325 321H260.697L259.137 319.83ZM276.708 326.2V307.272H284.3C287.108 307.272 288.512 308.676 288.512 311.484V316.788C288.512 319.596 287.108 321 284.3 321H280.296V326.2H276.708ZM280.296 317.88H284.092C284.647 317.88 284.924 317.603 284.924 317.048V311.224C284.924 310.669 284.647 310.392 284.092 310.392H280.296V317.88ZM299.428 321C296.62 321 295.216 319.622 295.216 316.866C295.216 314.11 296.62 312.732 299.428 312.732H303.016V311.224C303.016 310.669 302.739 310.392 302.184 310.392H296.672V308.442L298.232 307.272H302.392C305.2 307.272 306.604 308.676 306.604 311.484V321H299.428ZM298.804 317.048C298.804 317.603 299.081 317.88 299.636 317.88H303.016V315.488H299.636C299.081 315.488 298.804 315.765 298.804 316.32V317.048ZM313.931 316.788V311.484C313.931 308.676 315.335 307.272 318.143 307.272H322.979L324.539 308.442V310.392H318.351C317.796 310.392 317.519 310.669 317.519 311.224V317.048C317.519 317.603 317.796 317.88 318.351 317.88H324.539V319.83L322.979 321H318.143C315.335 321 313.931 319.596 313.931 316.788ZM331.288 316.788V311.484C331.288 308.676 332.692 307.272 335.5 307.272H338.88C341.688 307.272 343.092 308.676 343.092 311.484V315.462H334.876V317.048C334.876 317.603 335.153 317.88 335.708 317.88H342.572V319.83L341.012 321H335.5C332.692 321 331.288 319.596 331.288 316.788ZM334.876 312.706H339.504V311.224C339.504 310.669 339.227 310.392 338.672 310.392H335.708C335.153 310.392 334.876 310.669 334.876 311.224V312.706ZM216.212 354V338.972C216.212 336.164 217.616 334.76 220.424 334.76H222.972L224.532 335.93V337.88H220.632C220.078 337.88 219.8 338.157 219.8 338.712V340.272H224.272V343.392H219.8V354H216.212ZM230.723 349.788V340.272H234.311V350.048C234.311 350.603 234.589 350.88 235.143 350.88H238.939V340.272H242.527V354H234.935C232.127 354 230.723 352.596 230.723 349.788ZM250.165 354V340.272H257.757C260.565 340.272 261.969 341.676 261.969 344.484V354H258.381V344.224C258.381 343.669 258.103 343.392 257.549 343.392H253.753V354H250.165ZM269.294 349.788V344.484C269.294 341.676 270.698 340.272 273.506 340.272H278.342L279.902 341.442V343.392H273.714C273.16 343.392 272.882 343.669 272.882 344.224V350.048C272.882 350.603 273.16 350.88 273.714 350.88H279.902V352.83L278.342 354H273.506C270.698 354 269.294 352.596 269.294 349.788ZM626.988 346.798V345.342H634.112V346.798H626.988ZM640.781 350.048L650.947 345.29L640.781 340.532L641.405 339.232L652.403 344.484V346.096L641.405 351.348L640.781 350.048ZM256.693 387V375.04C257.334 373.861 258.565 373.272 260.385 373.272H263.193L264.753 374.442V376.392H261.347C260.827 376.392 260.471 376.522 260.281 376.782V387H256.693ZM271 382.788V377.484C271 374.676 272.404 373.272 275.212 373.272H278.592C281.4 373.272 282.804 374.676 282.804 377.484V381.462H274.588V383.048C274.588 383.603 274.866 383.88 275.42 383.88H282.284V385.83L280.724 387H275.212C272.404 387 271 385.596 271 382.788ZM274.588 378.706H279.216V377.224C279.216 376.669 278.939 376.392 278.384 376.392H275.42C274.866 376.392 274.588 376.669 274.588 377.224V378.706ZM290.137 382.788V369.06H293.725V373.272H298.197V376.392H293.725V383.048C293.725 383.603 294.003 383.88 294.557 383.88H298.457V385.83L296.897 387H294.349C291.541 387 290.137 385.596 290.137 382.788ZM305.057 382.788V373.272H308.645V383.048C308.645 383.603 308.922 383.88 309.477 383.88H313.273V373.272H316.861V387H309.269C306.461 387 305.057 385.596 305.057 382.788ZM324.394 387V375.04C325.036 373.861 326.266 373.272 328.086 373.272H330.894L332.454 374.442V376.392H329.048C328.528 376.392 328.173 376.522 327.982 376.782V387H324.394ZM338.91 387V373.272H346.502C349.31 373.272 350.714 374.676 350.714 377.484V387H347.126V377.224C347.126 376.669 346.849 376.392 346.294 376.392H342.498V387H338.91ZM216.004 415.788V410.484C216.004 407.676 217.408 406.272 220.216 406.272H223.596C226.404 406.272 227.808 407.676 227.808 410.484V414.462H219.592V416.048C219.592 416.603 219.87 416.88 220.424 416.88H227.288V418.83L225.728 420H220.216C217.408 420 216.004 418.596 216.004 415.788ZM219.592 411.706H224.22V410.224C224.22 409.669 223.943 409.392 223.388 409.392H220.424C219.87 409.392 219.592 409.669 219.592 410.224V411.706ZM235.245 420V406.272H242.837C245.645 406.272 247.049 407.676 247.049 410.484V420H243.461V410.224C243.461 409.669 243.184 409.392 242.629 409.392H238.833V420H235.245ZM254.375 415.788V410.484C254.375 407.676 255.779 406.272 258.587 406.272H262.591V400.76H266.179V420H258.587C255.779 420 254.375 418.596 254.375 415.788ZM257.963 416.048C257.963 416.603 258.24 416.88 258.795 416.88H262.591V409.392H258.795C258.24 409.392 257.963 409.669 257.963 410.224V416.048ZM175.42 448.788V443.484C175.42 440.676 176.824 439.272 179.632 439.272H183.012C185.82 439.272 187.224 440.676 187.224 443.484V447.462H179.008V449.048C179.008 449.603 179.285 449.88 179.84 449.88H186.704V451.83L185.144 453H179.632C176.824 453 175.42 451.596 175.42 448.788ZM179.008 444.706H183.636V443.224C183.636 442.669 183.359 442.392 182.804 442.392H179.84C179.285 442.392 179.008 442.669 179.008 443.224V444.706ZM194.661 453V439.272H202.253C205.061 439.272 206.465 440.676 206.465 443.484V453H202.877V443.224C202.877 442.669 202.599 442.392 202.045 442.392H198.249V453H194.661ZM213.79 448.788V443.484C213.79 440.676 215.194 439.272 218.002 439.272H222.006V433.76H225.594V453H218.002C215.194 453 213.79 451.596 213.79 448.788ZM217.378 449.048C217.378 449.603 217.656 449.88 218.21 449.88H222.006V442.392H218.21C217.656 442.392 217.378 442.669 217.378 443.224V449.048Z" fill="#00FFE4"/>
<path d="M280.83 89.324V88.57H286.862C288.249 88.57 288.942 87.8767 288.942 86.49C288.942 85.1033 288.387 84.3233 287.278 84.15L284.106 83.604C281.922 83.24 280.83 82.0873 280.83 80.146C280.83 77.7367 282.113 76.532 284.678 76.532H289.072L289.956 77.208V77.988H284.574C283.17 77.988 282.468 78.6727 282.468 80.042C282.468 81.2553 283.049 81.9573 284.21 82.148L287.408 82.694C289.523 83.0407 290.58 84.2713 290.58 86.386C290.58 88.7953 289.297 90 286.732 90H281.714L280.83 89.324ZM298.121 86.178V72.06H299.759V76.532H304.855V77.988H299.759V86.438C299.759 87.8593 300.47 88.57 301.891 88.57H305.115V89.324L304.231 90H301.943C299.395 90 298.121 88.726 298.121 86.178ZM315.198 90C312.633 90 311.35 88.7173 311.35 86.152C311.35 83.5693 312.633 82.278 315.198 82.278H320.294V80.094C320.294 78.69 319.592 77.988 318.188 77.988H312.598V77.208L313.508 76.532H318.136C320.667 76.532 321.932 77.806 321.932 80.354V90H315.198ZM312.988 86.438C312.988 87.8593 313.699 88.57 315.12 88.57H320.294V83.656H315.12C313.699 83.656 312.988 84.358 312.988 85.762V86.438ZM329.915 90V78.04C330.522 77.0347 331.623 76.532 333.217 76.532H335.765L336.649 77.208V77.988H333.295C332.498 77.988 331.917 78.2047 331.553 78.638V90H329.915ZM343.365 90V70.76H345.003V83.916L351.711 76.532H353.297L353.479 76.87L348.617 82.2L353.843 89.662L353.661 90H352.075L347.525 83.396L345.003 86.1V90H343.365ZM360.595 90V76.532H367.797C370.327 76.532 371.593 77.806 371.593 80.354V90H369.955V80.094C369.955 78.69 369.253 77.988 367.849 77.988H362.233V90H360.595ZM379.47 86.178V80.354C379.47 77.806 380.744 76.532 383.292 76.532H386.672C389.203 76.532 390.468 77.806 390.468 80.354V83.916H381.108V86.438C381.108 87.8593 381.819 88.57 383.24 88.57H389.948V89.324L389.064 90H383.292C380.744 90 379.47 88.726 379.47 86.178ZM381.108 82.538H388.83V80.094C388.83 78.69 388.128 77.988 386.724 77.988H383.24C381.819 77.988 381.108 78.69 381.108 80.094V82.538ZM398.353 86.178V72.06H399.991V76.532H405.087V77.988H399.991V86.438C399.991 87.8593 400.702 88.57 402.123 88.57H405.347V89.324L404.463 90H402.175C399.627 90 398.353 88.726 398.353 86.178ZM360.935 321V307.532H376.197C378.728 307.532 379.993 308.806 379.993 311.354V321H378.355V311.094C378.355 309.69 377.653 308.988 376.249 308.988H371.283V321H369.645V308.988H362.573V321H360.935ZM386.455 307.87L386.663 307.532H388.093L392.253 319.57H392.851L397.037 307.532H398.441L398.649 307.87L392.123 326.2H390.719L390.511 325.888L392.331 321H391.135L386.455 307.87ZM403.596 324.744H416.596V326.2H403.596V324.744ZM423.67 321V307.532H430.872C433.403 307.532 434.668 308.806 434.668 311.354V321H433.03V311.094C433.03 309.69 432.328 308.988 430.924 308.988H425.308V321H423.67ZM445.874 321C443.308 321 442.026 319.717 442.026 317.152C442.026 314.569 443.308 313.278 445.874 313.278H450.97V311.094C450.97 309.69 450.268 308.988 448.864 308.988H443.274V308.208L444.184 307.532H448.812C451.342 307.532 452.608 308.806 452.608 311.354V321H445.874ZM443.664 317.438C443.664 318.859 444.374 319.57 445.796 319.57H450.97V314.656H445.796C444.374 314.656 443.664 315.358 443.664 316.762V317.438ZM460.695 321V307.532H475.957C478.487 307.532 479.753 308.806 479.753 311.354V321H478.115V311.094C478.115 309.69 477.413 308.988 476.009 308.988H471.043V321H469.405V308.988H462.333V321H460.695ZM487.619 317.178V311.354C487.619 308.806 488.893 307.532 491.441 307.532H494.821C497.352 307.532 498.617 308.806 498.617 311.354V314.916H489.257V317.438C489.257 318.859 489.968 319.57 491.389 319.57H498.097V320.324L497.213 321H491.441C488.893 321 487.619 319.726 487.619 317.178ZM489.257 313.538H496.979V311.094C496.979 309.69 496.277 308.988 494.873 308.988H491.389C489.968 308.988 489.257 309.69 489.257 311.094V313.538ZM506.06 320.324V319.57H512.092C513.479 319.57 514.172 318.877 514.172 317.49C514.172 316.103 513.617 315.323 512.508 315.15L509.336 314.604C507.152 314.24 506.06 313.087 506.06 311.146C506.06 308.737 507.343 307.532 509.908 307.532H514.302L515.186 308.208V308.988H509.804C508.4 308.988 507.698 309.673 507.698 311.042C507.698 312.255 508.279 312.957 509.44 313.148L512.638 313.694C514.753 314.041 515.81 315.271 515.81 317.386C515.81 319.795 514.527 321 511.962 321H506.944L506.06 320.324ZM523.455 326.2V307.532H530.657C533.188 307.532 534.453 308.806 534.453 311.354V317.178C534.453 319.726 533.188 321 530.657 321H525.093V326.2H523.455ZM525.093 319.57H530.709C532.113 319.57 532.815 318.859 532.815 317.438V311.094C532.815 309.69 532.113 308.988 530.709 308.988H525.093V319.57ZM545.557 321C542.992 321 541.709 319.717 541.709 317.152C541.709 314.569 542.992 313.278 545.557 313.278H550.653V311.094C550.653 309.69 549.951 308.988 548.547 308.988H542.957V308.208L543.867 307.532H548.495C551.026 307.532 552.291 308.806 552.291 311.354V321H545.557ZM543.347 317.438C543.347 318.859 544.058 319.57 545.479 319.57H550.653V314.656H545.479C544.058 314.656 543.347 315.358 543.347 316.762V317.438ZM560.17 317.178V311.354C560.17 308.806 561.444 307.532 563.992 307.532H569.166L570.05 308.208V308.988H563.94C562.519 308.988 561.808 309.69 561.808 311.094V317.438C561.808 318.859 562.519 319.57 563.94 319.57H570.05V320.324L569.166 321H563.992C561.444 321 560.17 319.726 560.17 317.178ZM577.07 317.178V311.354C577.07 308.806 578.344 307.532 580.892 307.532H584.272C586.803 307.532 588.068 308.806 588.068 311.354V314.916H578.708V317.438C578.708 318.859 579.419 319.57 580.84 319.57H587.548V320.324L586.664 321H580.892C578.344 321 577.07 319.726 577.07 317.178ZM578.708 313.538H586.43V311.094C586.43 309.69 585.728 308.988 584.324 308.988H580.84C579.419 308.988 578.708 309.69 578.708 311.094V313.538ZM596.187 321V318.478H598.319V321H596.187ZM596.187 310.132V307.61H598.319V310.132H596.187ZM597.123 358.862C594.402 355.187 593.041 351.053 593.041 346.46C593.041 341.867 594.402 337.733 597.123 334.058L598.345 334.994C595.901 338.357 594.679 342.179 594.679 346.46C594.679 350.741 595.901 354.563 598.345 357.926L597.123 358.862ZM604.653 357.926C607.114 354.563 608.345 350.741 608.345 346.46C608.345 342.179 607.114 338.357 604.653 334.994L605.875 334.058C608.613 337.733 609.983 341.867 609.983 346.46C609.983 351.053 608.613 355.187 605.875 358.862L604.653 357.926ZM674.123 358.862C671.401 355.187 670.041 351.053 670.041 346.46C670.041 341.867 671.401 337.733 674.123 334.058L675.345 334.994C672.901 338.357 671.679 342.179 671.679 346.46C671.679 350.741 672.901 354.563 675.345 357.926L674.123 358.862ZM681.839 354V342.04C682.446 341.035 683.547 340.532 685.141 340.532H687.689L688.573 341.208V341.988H685.219C684.422 341.988 683.841 342.205 683.477 342.638V354H681.839ZM695.081 350.178V344.354C695.081 341.806 696.355 340.532 698.903 340.532H702.283C704.813 340.532 706.079 341.806 706.079 344.354V347.916H696.719V350.438C696.719 351.859 697.429 352.57 698.851 352.57H705.559V353.324L704.675 354H698.903C696.355 354 695.081 352.726 695.081 350.178ZM696.719 346.538H704.441V344.094C704.441 342.69 703.739 341.988 702.335 341.988H698.851C697.429 341.988 696.719 342.69 696.719 344.094V346.538ZM713.522 353.324V352.57H719.554C720.94 352.57 721.634 351.877 721.634 350.49C721.634 349.103 721.079 348.323 719.97 348.15L716.798 347.604C714.614 347.24 713.522 346.087 713.522 344.146C713.522 341.737 714.804 340.532 717.37 340.532H721.764L722.648 341.208V341.988H717.266C715.862 341.988 715.16 342.673 715.16 344.042C715.16 345.255 715.74 345.957 716.902 346.148L720.1 346.694C722.214 347.041 723.272 348.271 723.272 350.386C723.272 352.795 721.989 354 719.424 354H714.406L713.522 353.324ZM730.813 350.178V340.532H732.451V350.438C732.451 351.859 733.162 352.57 734.583 352.57H740.173V340.532H741.811V354H734.635C732.087 354 730.813 352.726 730.813 350.178ZM749.896 350.698V334.76H751.534V350.828C751.534 352.076 752.167 352.726 753.432 352.778V354.208C751.075 354.208 749.896 353.038 749.896 350.698ZM760.17 350.178V336.06H761.808V340.532H766.904V341.988H761.808V350.438C761.808 351.859 762.518 352.57 763.94 352.57H767.164V353.324L766.28 354H763.992C761.444 354 760.17 352.726 760.17 350.178ZM784.403 354V351.478H786.535V354H784.403ZM784.403 343.132V340.61H786.535V343.132H784.403ZM859.813 357.926C862.275 354.563 863.505 350.741 863.505 346.46C863.505 342.179 862.275 338.357 859.813 334.994L861.035 334.058C863.774 337.733 865.143 341.867 865.143 346.46C865.143 351.053 863.774 355.187 861.035 358.862L859.813 357.926ZM873.224 354V351.478H875.356V354H873.224ZM873.224 343.132V340.61H875.356V343.132H873.224ZM372.528 391.862C369.806 388.187 368.446 384.053 368.446 379.46C368.446 374.867 369.806 370.733 372.528 367.058L373.75 367.994C371.306 371.357 370.084 375.179 370.084 379.46C370.084 383.741 371.306 387.563 373.75 390.926L372.528 391.862ZM416.625 390.926C419.086 387.563 420.317 383.741 420.317 379.46C420.317 375.179 419.086 371.357 416.625 367.994L417.847 367.058C420.586 370.733 421.955 374.867 421.955 379.46C421.955 384.053 420.586 388.187 417.847 391.862L416.625 390.926Z" fill="white"/>
<path d="M175.056 150.878V149.422H178.696V144.638H175.056V143.182H178.696V138.06H180.256V143.182H184.624V138.06H186.184V143.182H189.824V144.638H186.184V149.422H189.824V150.878H186.184V156H184.624V150.878H180.256V156H178.696V150.878H175.056ZM180.256 149.422H184.624V144.638H180.256V149.422ZM207.301 156V140.582C207.301 138.034 208.575 136.76 211.123 136.76H213.411L214.295 137.436V138.19H211.071C209.65 138.19 208.939 138.901 208.939 140.322V142.532H214.035V143.988H208.939V156H207.301ZM220.746 152.178V142.532H222.384V152.438C222.384 153.859 223.094 154.57 224.516 154.57H230.106V142.532H231.744V156H224.568C222.02 156 220.746 154.726 220.746 152.178ZM239.933 156V142.532H247.135C249.666 142.532 250.931 143.806 250.931 146.354V156H249.293V146.094C249.293 144.69 248.591 143.988 247.187 143.988H241.571V156H239.933ZM258.809 152.178V146.354C258.809 143.806 260.083 142.532 262.631 142.532H267.805L268.689 143.208V143.988H262.579C261.158 143.988 260.447 144.69 260.447 146.094V152.438C260.447 153.859 261.158 154.57 262.579 154.57H268.689V155.324L267.805 156H262.631C260.083 156 258.809 154.726 258.809 152.178ZM275.813 152.178V138.06H277.451V142.532H282.547V143.988H277.451V152.438C277.451 153.859 278.162 154.57 279.583 154.57H282.807V155.324L281.923 156H279.635C277.087 156 275.813 154.726 275.813 152.178ZM289.666 139.958V137.826H291.538V139.958H289.666ZM289.77 156V142.532H291.408V156H289.77ZM299.378 152.178V146.354C299.378 143.806 300.652 142.532 303.2 142.532H306.84C309.371 142.532 310.636 143.806 310.636 146.354V152.178C310.636 154.726 309.371 156 306.84 156H303.2C300.652 156 299.378 154.726 299.378 152.178ZM301.016 152.438C301.016 153.859 301.727 154.57 303.148 154.57H306.892C308.296 154.57 308.998 153.859 308.998 152.438V146.094C308.998 144.69 308.296 143.988 306.892 143.988H303.148C301.727 143.988 301.016 144.69 301.016 146.094V152.438ZM318.619 156V142.532H325.821C328.352 142.532 329.617 143.806 329.617 146.354V156H327.979V146.094C327.979 144.69 327.277 143.988 325.873 143.988H320.257V156H318.619ZM350.969 156C348.403 156 347.121 154.717 347.121 152.152C347.121 149.569 348.403 148.278 350.969 148.278H356.065V146.094C356.065 144.69 355.363 143.988 353.959 143.988H348.369V143.208L349.279 142.532H353.907C356.437 142.532 357.703 143.806 357.703 146.354V156H350.969ZM348.759 152.438C348.759 153.859 349.469 154.57 350.891 154.57H356.065V149.656H350.891C349.469 149.656 348.759 150.358 348.759 151.762V152.438ZM365.79 156V142.532H372.992C375.522 142.532 376.788 143.806 376.788 146.354V156H375.15V146.094C375.15 144.69 374.448 143.988 373.044 143.988H367.428V156H365.79ZM384.665 152.178V146.354C384.665 143.806 385.939 142.532 388.487 142.532H394.025V136.76H395.663V156H388.487C385.939 156 384.665 154.726 384.665 152.178ZM386.303 152.438C386.303 153.859 387.014 154.57 388.435 154.57H394.025V143.988H388.435C387.014 143.988 386.303 144.69 386.303 146.094V152.438ZM413.793 152.178V146.354C413.793 143.806 415.067 142.532 417.615 142.532H421.255C423.786 142.532 425.051 143.806 425.051 146.354V152.178C425.051 154.726 423.786 156 421.255 156H417.615C415.067 156 413.793 154.726 413.793 152.178ZM415.431 152.438C415.431 153.859 416.142 154.57 417.563 154.57H421.307C422.711 154.57 423.413 153.859 423.413 152.438V146.094C423.413 144.69 422.711 143.988 421.307 143.988H417.563C416.142 143.988 415.431 144.69 415.431 146.094V152.438ZM432.93 152.178V138.06H434.568V142.532H439.664V143.988H434.568V152.438C434.568 153.859 435.279 154.57 436.7 154.57H439.924V155.324L439.04 156H436.752C434.204 156 432.93 154.726 432.93 152.178ZM446.887 156V136.76H448.525V142.532H454.089C456.62 142.532 457.885 143.806 457.885 146.354V156H456.247V146.094C456.247 144.69 455.545 143.988 454.141 143.988H448.525V156H446.887ZM465.763 152.178V146.354C465.763 143.806 467.037 142.532 469.585 142.532H472.965C475.495 142.532 476.761 143.806 476.761 146.354V149.916H467.401V152.438C467.401 153.859 468.111 154.57 469.533 154.57H476.241V155.324L475.357 156H469.585C467.037 156 465.763 154.726 465.763 152.178ZM467.401 148.538H475.123V146.094C475.123 144.69 474.421 143.988 473.017 143.988H469.533C468.111 143.988 467.401 144.69 467.401 146.094V148.538ZM484.646 156V144.04C485.252 143.035 486.353 142.532 487.948 142.532H490.496L491.38 143.208V143.988H488.026C487.228 143.988 486.648 144.205 486.284 144.638V156H484.646ZM508.033 152.178V146.354C508.033 143.806 509.307 142.532 511.855 142.532H517.393V136.76H519.031V156H511.855C509.307 156 508.033 154.726 508.033 152.178ZM509.671 152.438C509.671 153.859 510.382 154.57 511.803 154.57H517.393V143.988H511.803C510.382 143.988 509.671 144.69 509.671 146.094V152.438ZM527.015 152.178V146.354C527.015 143.806 528.289 142.532 530.837 142.532H534.217C536.748 142.532 538.013 143.806 538.013 146.354V149.916H528.653V152.438C528.653 153.859 529.364 154.57 530.785 154.57H537.493V155.324L536.609 156H530.837C528.289 156 527.015 154.726 527.015 152.178ZM528.653 148.538H536.375V146.094C536.375 144.69 535.673 143.988 534.269 143.988H530.785C529.364 143.988 528.653 144.69 528.653 146.094V148.538ZM546.002 156V140.582C546.002 138.034 547.276 136.76 549.824 136.76H552.112L552.996 137.436V138.19H549.772C548.351 138.19 547.64 138.901 547.64 140.322V142.532H552.736V143.988H547.64V156H546.002ZM559.446 139.958V137.826H561.318V139.958H559.446ZM559.55 156V142.532H561.188V156H559.55ZM569.366 156V142.532H576.568C579.099 142.532 580.364 143.806 580.364 146.354V156H578.726V146.094C578.726 144.69 578.024 143.988 576.62 143.988H571.004V156H569.366ZM588.346 139.958V137.826H590.218V139.958H588.346ZM588.45 156V142.532H590.088V156H588.45ZM598.162 152.178V138.06H599.8V142.532H604.896V143.988H599.8V152.438C599.8 153.859 600.511 154.57 601.932 154.57H605.156V155.324L604.272 156H601.984C599.436 156 598.162 154.726 598.162 152.178ZM612.015 139.958V137.826H613.887V139.958H612.015ZM612.119 156V142.532H613.757V156H612.119ZM621.727 152.178V146.354C621.727 143.806 623.001 142.532 625.549 142.532H629.189C631.72 142.532 632.985 143.806 632.985 146.354V152.178C632.985 154.726 631.72 156 629.189 156H625.549C623.001 156 621.727 154.726 621.727 152.178ZM623.365 152.438C623.365 153.859 624.076 154.57 625.497 154.57H629.241C630.645 154.57 631.347 153.859 631.347 152.438V146.094C631.347 144.69 630.645 143.988 629.241 143.988H625.497C624.076 143.988 623.365 144.69 623.365 146.094V152.438ZM640.968 156V142.532H648.17C650.701 142.532 651.966 143.806 651.966 146.354V156H650.328V146.094C650.328 144.69 649.626 143.988 648.222 143.988H642.606V156H640.968ZM659.506 155.324V154.57H665.538C666.924 154.57 667.618 153.877 667.618 152.49C667.618 151.103 667.063 150.323 665.954 150.15L662.782 149.604C660.598 149.24 659.506 148.087 659.506 146.146C659.506 143.737 660.788 142.532 663.354 142.532H667.748L668.632 143.208V143.988H663.25C661.846 143.988 661.144 144.673 661.144 146.042C661.144 147.255 661.724 147.957 662.886 148.148L666.084 148.694C668.198 149.041 669.256 150.271 669.256 152.386C669.256 154.795 667.973 156 665.408 156H660.39L659.506 155.324ZM686.839 152.178V146.354C686.839 143.806 688.113 142.532 690.661 142.532H695.835L696.719 143.208V143.988H690.609C689.188 143.988 688.477 144.69 688.477 146.094V152.438C688.477 153.859 689.188 154.57 690.609 154.57H696.719V155.324L695.835 156H690.661C688.113 156 686.839 154.726 686.839 152.178ZM707.067 156C704.502 156 703.219 154.717 703.219 152.152C703.219 149.569 704.502 148.278 707.067 148.278H712.163V146.094C712.163 144.69 711.461 143.988 710.057 143.988H704.467V143.208L705.377 142.532H710.005C712.536 142.532 713.801 143.806 713.801 146.354V156H707.067ZM704.857 152.438C704.857 153.859 705.568 154.57 706.989 154.57H712.163V149.656H706.989C705.568 149.656 704.857 150.358 704.857 151.762V152.438ZM721.888 156V142.532H729.09C731.621 142.532 732.886 143.806 732.886 146.354V156H731.248V146.094C731.248 144.69 730.546 143.988 729.142 143.988H723.526V156H721.888ZM751.118 156V136.76H752.756V142.532H758.32C760.85 142.532 762.116 143.806 762.116 146.354V152.178C762.116 154.726 760.85 156 758.32 156H751.118ZM752.756 154.57H758.372C759.776 154.57 760.478 153.859 760.478 152.438V146.094C760.478 144.69 759.776 143.988 758.372 143.988H752.756V154.57ZM769.892 152.178V146.354C769.892 143.806 771.166 142.532 773.714 142.532H777.094C779.624 142.532 780.89 143.806 780.89 146.354V149.916H771.53V152.438C771.53 153.859 772.24 154.57 773.662 154.57H780.37V155.324L779.486 156H773.714C771.166 156 769.892 154.726 769.892 152.178ZM771.53 148.538H779.252V146.094C779.252 144.69 778.55 143.988 777.146 143.988H773.662C772.24 143.988 771.53 144.69 771.53 146.094V148.538ZM798.479 155.324V154.57H804.511C805.897 154.57 806.591 153.877 806.591 152.49C806.591 151.103 806.036 150.323 804.927 150.15L801.755 149.604C799.571 149.24 798.479 148.087 798.479 146.146C798.479 143.737 799.761 142.532 802.327 142.532H806.721L807.605 143.208V143.988H802.223C800.819 143.988 800.117 144.673 800.117 146.042C800.117 147.255 800.697 147.957 801.859 148.148L805.057 148.694C807.171 149.041 808.229 150.271 808.229 152.386C808.229 154.795 806.946 156 804.381 156H799.363L798.479 155.324ZM815.666 152.178V146.354C815.666 143.806 816.94 142.532 819.488 142.532H824.662L825.546 143.208V143.988H819.436C818.015 143.988 817.304 144.69 817.304 146.094V152.438C817.304 153.859 818.015 154.57 819.436 154.57H825.546V155.324L824.662 156H819.488C816.94 156 815.666 154.726 815.666 152.178ZM832.566 152.178V146.354C832.566 143.806 833.84 142.532 836.388 142.532H840.028C842.559 142.532 843.824 143.806 843.824 146.354V152.178C843.824 154.726 842.559 156 840.028 156H836.388C833.84 156 832.566 154.726 832.566 152.178ZM834.204 152.438C834.204 153.859 834.915 154.57 836.336 154.57H840.08C841.484 154.57 842.186 153.859 842.186 152.438V146.094C842.186 144.69 841.484 143.988 840.08 143.988H836.336C834.915 143.988 834.204 144.69 834.204 146.094V152.438ZM851.807 161.2V142.532H859.009C861.539 142.532 862.805 143.806 862.805 146.354V152.178C862.805 154.726 861.539 156 859.009 156H853.445V161.2H851.807ZM853.445 154.57H859.061C860.465 154.57 861.167 153.859 861.167 152.438V146.094C861.167 144.69 860.465 143.988 859.061 143.988H853.445V154.57ZM870.581 152.178V146.354C870.581 143.806 871.855 142.532 874.403 142.532H877.783C880.313 142.532 881.579 143.806 881.579 146.354V149.916H872.219V152.438C872.219 153.859 872.929 154.57 874.351 154.57H881.059V155.324L880.175 156H874.403C871.855 156 870.581 154.726 870.581 152.178ZM872.219 148.538H879.941V146.094C879.941 144.69 879.239 143.988 877.835 143.988H874.351C872.929 143.988 872.219 144.69 872.219 146.094V148.538ZM889.36 152.178V146.354C889.36 143.806 890.634 142.532 893.182 142.532H898.72V136.76H900.358V156H893.182C890.634 156 889.36 154.726 889.36 152.178ZM890.998 152.438C890.998 153.859 891.708 154.57 893.13 154.57H898.72V143.988H893.13C891.708 143.988 890.998 144.69 890.998 146.094V152.438ZM175.784 172.958V170.826H177.656V172.958H175.784ZM175.888 189V175.532H177.526V189H175.888ZM185.704 189V175.532H192.906C195.437 175.532 196.702 176.806 196.702 179.354V189H195.064V179.094C195.064 177.69 194.362 176.988 192.958 176.988H187.342V189H185.704ZM175.888 222V208.532H183.09C185.621 208.532 186.886 209.806 186.886 212.354V222H185.248V212.094C185.248 210.69 184.546 209.988 183.142 209.988H177.526V222H175.888ZM198.092 222C195.526 222 194.244 220.717 194.244 218.152C194.244 215.569 195.526 214.278 198.092 214.278H203.188V212.094C203.188 210.69 202.486 209.988 201.082 209.988H195.492V209.208L196.402 208.532H201.03C203.56 208.532 204.826 209.806 204.826 212.354V222H198.092ZM195.882 218.438C195.882 219.859 196.592 220.57 198.014 220.57H203.188V215.656H198.014C196.592 215.656 195.882 216.358 195.882 217.762V218.438ZM212.913 222V208.532H228.175C230.705 208.532 231.971 209.806 231.971 212.354V222H230.333V212.094C230.333 210.69 229.631 209.988 228.227 209.988H223.261V222H221.623V209.988H214.551V222H212.913ZM239.837 218.178V212.354C239.837 209.806 241.111 208.532 243.659 208.532H247.039C249.57 208.532 250.835 209.806 250.835 212.354V215.916H241.475V218.438C241.475 219.859 242.186 220.57 243.607 220.57H250.315V221.324L249.431 222H243.659C241.111 222 239.837 220.726 239.837 218.178ZM241.475 214.538H249.197V212.094C249.197 210.69 248.495 209.988 247.091 209.988H243.607C242.186 209.988 241.475 210.69 241.475 212.094V214.538ZM258.278 221.324V220.57H264.31C265.697 220.57 266.39 219.877 266.39 218.49C266.39 217.103 265.835 216.323 264.726 216.15L261.554 215.604C259.37 215.24 258.278 214.087 258.278 212.146C258.278 209.737 259.561 208.532 262.126 208.532H266.52L267.404 209.208V209.988H262.022C260.618 209.988 259.916 210.673 259.916 212.042C259.916 213.255 260.497 213.957 261.658 214.148L264.856 214.694C266.971 215.041 268.028 216.271 268.028 218.386C268.028 220.795 266.745 222 264.18 222H259.162L258.278 221.324ZM275.673 227.2V208.532H282.875C285.406 208.532 286.671 209.806 286.671 212.354V218.178C286.671 220.726 285.406 222 282.875 222H277.311V227.2H275.673ZM277.311 220.57H282.927C284.331 220.57 285.033 219.859 285.033 218.438V212.094C285.033 210.69 284.331 209.988 282.927 209.988H277.311V220.57ZM297.775 222C295.21 222 293.927 220.717 293.927 218.152C293.927 215.569 295.21 214.278 297.775 214.278H302.871V212.094C302.871 210.69 302.169 209.988 300.765 209.988H295.175V209.208L296.085 208.532H300.713C303.244 208.532 304.509 209.806 304.509 212.354V222H297.775ZM295.565 218.438C295.565 219.859 296.276 220.57 297.697 220.57H302.871V215.656H297.697C296.276 215.656 295.565 216.358 295.565 217.762V218.438ZM312.388 218.178V212.354C312.388 209.806 313.662 208.532 316.21 208.532H321.384L322.268 209.208V209.988H316.158C314.737 209.988 314.026 210.69 314.026 212.094V218.438C314.026 219.859 314.737 220.57 316.158 220.57H322.268V221.324L321.384 222H316.21C313.662 222 312.388 220.726 312.388 218.178ZM329.288 218.178V212.354C329.288 209.806 330.562 208.532 333.11 208.532H336.49C339.021 208.532 340.286 209.806 340.286 212.354V215.916H330.926V218.438C330.926 219.859 331.637 220.57 333.058 220.57H339.766V221.324L338.882 222H333.11C330.562 222 329.288 220.726 329.288 218.178ZM330.926 214.538H338.648V212.094C338.648 210.69 337.946 209.988 336.542 209.988H333.058C331.637 209.988 330.926 210.69 330.926 212.094V214.538ZM347.729 221.324V220.57H353.761C355.148 220.57 355.841 219.877 355.841 218.49C355.841 217.103 355.286 216.323 354.177 216.15L351.005 215.604C348.821 215.24 347.729 214.087 347.729 212.146C347.729 209.737 349.012 208.532 351.577 208.532H355.971L356.855 209.208V209.988H351.473C350.069 209.988 349.367 210.673 349.367 212.042C349.367 213.255 349.948 213.957 351.109 214.148L354.307 214.694C356.422 215.041 357.479 216.271 357.479 218.386C357.479 220.795 356.196 222 353.631 222H348.613L347.729 221.324ZM363.902 225.276L365.332 219.478H367.048L367.256 219.79L365.202 225.562L363.902 225.276ZM385.797 222V208.532H401.059C403.59 208.532 404.855 209.806 404.855 212.354V222H403.217V212.094C403.217 210.69 402.515 209.988 401.111 209.988H396.145V222H394.507V209.988H387.435V222H385.797ZM416.05 222C413.484 222 412.202 220.717 412.202 218.152C412.202 215.569 413.484 214.278 416.05 214.278H421.146V212.094C421.146 210.69 420.444 209.988 419.04 209.988H413.45V209.208L414.36 208.532H418.988C421.518 208.532 422.784 209.806 422.784 212.354V222H416.05ZM413.84 218.438C413.84 219.859 414.55 220.57 415.972 220.57H421.146V215.656H415.972C414.55 215.656 413.84 216.358 413.84 217.762V218.438ZM430.871 222V202.76H432.509V215.916L439.217 208.532H440.803L440.985 208.87L436.123 214.2L441.349 221.662L441.167 222H439.581L435.031 215.396L432.509 218.1V222H430.871ZM447.997 205.958V203.826H449.869V205.958H447.997ZM448.101 222V208.532H449.739V222H448.101ZM457.917 222V208.532H465.119C467.65 208.532 468.915 209.806 468.915 212.354V222H467.277V212.094C467.277 210.69 466.575 209.988 465.171 209.988H459.555V222H457.917ZM476.818 218.178V212.354C476.818 209.806 478.092 208.532 480.64 208.532H487.842V223.378C487.842 225.926 486.568 227.2 484.02 227.2H478.716L477.832 226.524V225.77H484.072C485.494 225.77 486.204 225.059 486.204 223.638V222H480.64C478.092 222 476.818 220.726 476.818 218.178ZM478.456 218.438C478.456 219.859 479.167 220.57 480.588 220.57H486.204V209.988H480.588C479.167 209.988 478.456 210.69 478.456 212.094V218.438ZM506.075 218.178V204.06H507.713V208.532H512.809V209.988H507.713V218.438C507.713 219.859 508.424 220.57 509.845 220.57H513.069V221.324L512.185 222H509.897C507.349 222 506.075 220.726 506.075 218.178ZM520.033 222V202.76H521.671V208.532H527.235C529.765 208.532 531.031 209.806 531.031 212.354V222H529.393V212.094C529.393 210.69 528.691 209.988 527.287 209.988H521.671V222H520.033ZM538.908 218.178V212.354C538.908 209.806 540.182 208.532 542.73 208.532H546.11C548.641 208.532 549.906 209.806 549.906 212.354V215.916H540.546V218.438C540.546 219.859 541.257 220.57 542.678 220.57H549.386V221.324L548.502 222H542.73C540.182 222 538.908 220.726 538.908 218.178ZM540.546 214.538H548.268V212.094C548.268 210.69 547.566 209.988 546.162 209.988H542.678C541.257 209.988 540.546 210.69 540.546 212.094V214.538ZM567.833 218.178V212.354C567.833 209.806 569.107 208.532 571.655 208.532H576.829L577.713 209.208V209.988H571.603C570.182 209.988 569.471 210.69 569.471 212.094V218.438C569.471 219.859 570.182 220.57 571.603 220.57H577.713V221.324L576.829 222H571.655C569.107 222 567.833 220.726 567.833 218.178ZM584.733 218.178V212.354C584.733 209.806 586.007 208.532 588.555 208.532H592.195C594.726 208.532 595.991 209.806 595.991 212.354V218.178C595.991 220.726 594.726 222 592.195 222H588.555C586.007 222 584.733 220.726 584.733 218.178ZM586.371 218.438C586.371 219.859 587.082 220.57 588.503 220.57H592.247C593.651 220.57 594.353 219.859 594.353 218.438V212.094C594.353 210.69 593.651 209.988 592.247 209.988H588.503C587.082 209.988 586.371 210.69 586.371 212.094V218.438ZM603.766 218.178V212.354C603.766 209.806 605.04 208.532 607.588 208.532H613.126V202.76H614.764V222H607.588C605.04 222 603.766 220.726 603.766 218.178ZM605.404 218.438C605.404 219.859 606.115 220.57 607.536 220.57H613.126V209.988H607.536C606.115 209.988 605.404 210.69 605.404 212.094V218.438ZM622.748 218.178V212.354C622.748 209.806 624.022 208.532 626.57 208.532H629.95C632.481 208.532 633.746 209.806 633.746 212.354V215.916H624.386V218.438C624.386 219.859 625.097 220.57 626.518 220.57H633.226V221.324L632.342 222H626.57C624.022 222 622.748 220.726 622.748 218.178ZM624.386 214.538H632.108V212.094C632.108 210.69 631.406 209.988 630.002 209.988H626.518C625.097 209.988 624.386 210.69 624.386 212.094V214.538ZM651.881 222V208.532H667.143C669.674 208.532 670.939 209.806 670.939 212.354V222H669.301V212.094C669.301 210.69 668.599 209.988 667.195 209.988H662.229V222H660.591V209.988H653.519V222H651.881ZM678.805 218.178V212.354C678.805 209.806 680.079 208.532 682.627 208.532H686.267C688.798 208.532 690.063 209.806 690.063 212.354V218.178C690.063 220.726 688.798 222 686.267 222H682.627C680.079 222 678.805 220.726 678.805 218.178ZM680.443 218.438C680.443 219.859 681.154 220.57 682.575 220.57H686.319C687.723 220.57 688.425 219.859 688.425 218.438V212.094C688.425 210.69 687.723 209.988 686.319 209.988H682.575C681.154 209.988 680.443 210.69 680.443 212.094V218.438ZM697.942 222V210.04C698.549 209.035 699.65 208.532 701.244 208.532H703.792L704.676 209.208V209.988H701.322C700.525 209.988 699.944 210.205 699.58 210.638V222H697.942ZM711.184 218.178V212.354C711.184 209.806 712.458 208.532 715.006 208.532H718.386C720.916 208.532 722.182 209.806 722.182 212.354V215.916H712.822V218.438C712.822 219.859 713.532 220.57 714.954 220.57H721.662V221.324L720.778 222H715.006C712.458 222 711.184 220.726 711.184 218.178ZM712.822 214.538H720.544V212.094C720.544 210.69 719.842 209.988 718.438 209.988H714.954C713.532 209.988 712.822 210.69 712.822 212.094V214.538ZM740.213 222V210.04C740.819 209.035 741.92 208.532 743.515 208.532H746.063L746.947 209.208V209.988H743.593C742.795 209.988 742.215 210.205 741.851 210.638V222H740.213ZM753.454 218.178V212.354C753.454 209.806 754.728 208.532 757.276 208.532H760.656C763.186 208.532 764.452 209.806 764.452 212.354V215.916H755.092V218.438C755.092 219.859 755.802 220.57 757.224 220.57H763.932V221.324L763.048 222H757.276C754.728 222 753.454 220.726 753.454 218.178ZM755.092 214.538H762.814V212.094C762.814 210.69 762.112 209.988 760.708 209.988H757.224C755.802 209.988 755.092 210.69 755.092 212.094V214.538ZM775.561 222C772.995 222 771.713 220.717 771.713 218.152C771.713 215.569 772.995 214.278 775.561 214.278H780.657V212.094C780.657 210.69 779.955 209.988 778.551 209.988H772.961V209.208L773.871 208.532H778.499C781.029 208.532 782.295 209.806 782.295 212.354V222H775.561ZM773.351 218.438C773.351 219.859 774.061 220.57 775.483 220.57H780.657V215.656H775.483C774.061 215.656 773.351 216.358 773.351 217.762V218.438ZM790.174 218.178V212.354C790.174 209.806 791.448 208.532 793.996 208.532H799.534V202.76H801.172V222H793.996C791.448 222 790.174 220.726 790.174 218.178ZM791.812 218.438C791.812 219.859 792.522 220.57 793.944 220.57H799.534V209.988H793.944C792.522 209.988 791.812 210.69 791.812 212.094V218.438ZM812.484 222C809.918 222 808.636 220.717 808.636 218.152C808.636 215.569 809.918 214.278 812.484 214.278H817.58V212.094C817.58 210.69 816.878 209.988 815.474 209.988H809.884V209.208L810.794 208.532H815.422C817.952 208.532 819.218 209.806 819.218 212.354V222H812.484ZM810.274 218.438C810.274 219.859 810.984 220.57 812.406 220.57H817.58V215.656H812.406C810.984 215.656 810.274 216.358 810.274 217.762V218.438ZM827.305 222V202.76H828.943V208.532H834.507C837.037 208.532 838.303 209.806 838.303 212.354V218.178C838.303 220.726 837.037 222 834.507 222H827.305ZM828.943 220.57H834.559C835.963 220.57 836.665 219.859 836.665 218.438V212.094C836.665 210.69 835.963 209.988 834.559 209.988H828.943V220.57ZM846.183 218.698V202.76H847.821V218.828C847.821 220.076 848.453 220.726 849.719 220.778V222.208C847.361 222.208 846.183 221.038 846.183 218.698ZM856.352 218.178V212.354C856.352 209.806 857.626 208.532 860.174 208.532H863.554C866.085 208.532 867.35 209.806 867.35 212.354V215.916H857.99V218.438C857.99 219.859 858.701 220.57 860.122 220.57H866.83V221.324L865.946 222H860.174C857.626 222 856.352 220.726 856.352 218.178ZM857.99 214.538H865.712V212.094C865.712 210.69 865.01 209.988 863.606 209.988H860.122C858.701 209.988 857.99 210.69 857.99 212.094V214.538ZM875.469 222V219.478H877.601V222H875.469ZM175.056 282.878V281.422H178.696V276.638H175.056V275.182H178.696V270.06H180.256V275.182H184.624V270.06H186.184V275.182H189.824V276.638H186.184V281.422H189.824V282.878H186.184V288H184.624V282.878H180.256V288H178.696V282.878H175.056ZM180.256 281.422H184.624V276.638H180.256V281.422ZM207.093 284.178V278.354C207.093 275.806 208.367 274.532 210.915 274.532H216.453V268.76H218.091V288H210.915C208.367 288 207.093 286.726 207.093 284.178ZM208.731 284.438C208.731 285.859 209.442 286.57 210.863 286.57H216.453V275.988H210.863C209.442 275.988 208.731 276.69 208.731 278.094V284.438ZM226.075 284.178V278.354C226.075 275.806 227.349 274.532 229.897 274.532H233.537C236.068 274.532 237.333 275.806 237.333 278.354V284.178C237.333 286.726 236.068 288 233.537 288H229.897C227.349 288 226.075 286.726 226.075 284.178ZM227.713 284.438C227.713 285.859 228.424 286.57 229.845 286.57H233.589C234.993 286.57 235.695 285.859 235.695 284.438V278.094C235.695 276.69 234.993 275.988 233.589 275.988H229.845C228.424 275.988 227.713 276.69 227.713 278.094V284.438ZM255.462 288V274.532H262.664C265.195 274.532 266.46 275.806 266.46 278.354V288H264.822V278.094C264.822 276.69 264.12 275.988 262.716 275.988H257.1V288H255.462ZM274.338 284.178V278.354C274.338 275.806 275.612 274.532 278.16 274.532H281.8C284.33 274.532 285.596 275.806 285.596 278.354V284.178C285.596 286.726 284.33 288 281.8 288H278.16C275.612 288 274.338 286.726 274.338 284.178ZM275.976 284.438C275.976 285.859 276.686 286.57 278.108 286.57H281.852C283.256 286.57 283.958 285.859 283.958 284.438V278.094C283.958 276.69 283.256 275.988 281.852 275.988H278.108C276.686 275.988 275.976 276.69 275.976 278.094V284.438ZM293.475 284.178V270.06H295.113V274.532H300.209V275.988H295.113V284.438C295.113 285.859 295.823 286.57 297.245 286.57H300.469V287.324L299.585 288H297.297C294.749 288 293.475 286.726 293.475 284.178ZM317.37 284.178V278.354C317.37 275.806 318.644 274.532 321.192 274.532H326.366L327.25 275.208V275.988H321.14C319.718 275.988 319.008 276.69 319.008 278.094V284.438C319.008 285.859 319.718 286.57 321.14 286.57H327.25V287.324L326.366 288H321.192C318.644 288 317.37 286.726 317.37 284.178ZM334.478 288V268.76H336.116V274.532H341.68C344.21 274.532 345.476 275.806 345.476 278.354V288H343.838V278.094C343.838 276.69 343.136 275.988 341.732 275.988H336.116V288H334.478ZM356.681 288C354.116 288 352.833 286.717 352.833 284.152C352.833 281.569 354.116 280.278 356.681 280.278H361.777V278.094C361.777 276.69 361.075 275.988 359.671 275.988H354.081V275.208L354.991 274.532H359.619C362.15 274.532 363.415 275.806 363.415 278.354V288H356.681ZM354.471 284.438C354.471 285.859 355.182 286.57 356.603 286.57H361.777V281.656H356.603C355.182 281.656 354.471 282.358 354.471 283.762V284.438ZM371.502 288V274.532H378.704C381.235 274.532 382.5 275.806 382.5 278.354V288H380.862V278.094C380.862 276.69 380.16 275.988 378.756 275.988H373.14V288H371.502ZM390.404 284.178V278.354C390.404 275.806 391.678 274.532 394.226 274.532H401.428V289.378C401.428 291.926 400.154 293.2 397.606 293.2H392.302L391.418 292.524V291.77H397.658C399.079 291.77 399.79 291.059 399.79 289.638V288H394.226C391.678 288 390.404 286.726 390.404 284.178ZM392.042 284.438C392.042 285.859 392.753 286.57 394.174 286.57H399.79V275.988H394.174C392.753 275.988 392.042 276.69 392.042 278.094V284.438ZM409.411 284.178V278.354C409.411 275.806 410.685 274.532 413.233 274.532H416.613C419.144 274.532 420.409 275.806 420.409 278.354V281.916H411.049V284.438C411.049 285.859 411.76 286.57 413.181 286.57H419.889V287.324L419.005 288H413.233C410.685 288 409.411 286.726 409.411 284.178ZM411.049 280.538H418.771V278.094C418.771 276.69 418.069 275.988 416.665 275.988H413.181C411.76 275.988 411.049 276.69 411.049 278.094V280.538ZM441.664 288C439.099 288 437.816 286.717 437.816 284.152C437.816 281.569 439.099 280.278 441.664 280.278H446.76V278.094C446.76 276.69 446.058 275.988 444.654 275.988H439.064V275.208L439.974 274.532H444.602C447.133 274.532 448.398 275.806 448.398 278.354V288H441.664ZM439.454 284.438C439.454 285.859 440.165 286.57 441.586 286.57H446.76V281.656H441.586C440.165 281.656 439.454 282.358 439.454 283.762V284.438ZM456.485 288V274.532H463.687C466.218 274.532 467.483 275.806 467.483 278.354V288H465.845V278.094C465.845 276.69 465.143 275.988 463.739 275.988H458.123V288H456.485ZM473.956 274.87L474.164 274.532H475.594L479.754 286.57H480.352L484.538 274.532H485.942L486.15 274.87L479.624 293.2H478.22L478.012 292.888L479.832 288H478.636L473.956 274.87ZM492.593 284.178V270.06H494.231V274.532H499.327V275.988H494.231V284.438C494.231 285.859 494.942 286.57 496.363 286.57H499.587V287.324L498.703 288H496.415C493.867 288 492.593 286.726 492.593 284.178ZM506.55 288V268.76H508.188V274.532H513.752C516.283 274.532 517.548 275.806 517.548 278.354V288H515.91V278.094C515.91 276.69 515.208 275.988 513.804 275.988H508.188V288H506.55ZM525.53 271.958V269.826H527.402V271.958H525.53ZM525.634 288V274.532H527.272V288H525.634ZM535.45 288V274.532H542.652C545.182 274.532 546.448 275.806 546.448 278.354V288H544.81V278.094C544.81 276.69 544.108 275.988 542.704 275.988H537.088V288H535.45ZM554.351 284.178V278.354C554.351 275.806 555.625 274.532 558.173 274.532H565.375V289.378C565.375 291.926 564.101 293.2 561.553 293.2H556.249L555.365 292.524V291.77H561.605C563.027 291.77 563.737 291.059 563.737 289.638V288H558.173C555.625 288 554.351 286.726 554.351 284.178ZM555.989 284.438C555.989 285.859 556.7 286.57 558.121 286.57H563.737V275.988H558.121C556.7 275.988 555.989 276.69 555.989 278.094V284.438ZM583.712 288V268.76H585.35V274.532H590.914C593.445 274.532 594.71 275.806 594.71 278.354V284.178C594.71 286.726 593.445 288 590.914 288H583.712ZM585.35 286.57H590.966C592.37 286.57 593.072 285.859 593.072 284.438V278.094C593.072 276.69 592.37 275.988 590.966 275.988H585.35V286.57ZM602.59 284.178V274.532H604.228V284.438C604.228 285.859 604.939 286.57 606.36 286.57H611.95V274.532H613.588V288H606.412C603.864 288 602.59 286.726 602.59 284.178ZM621.674 284.178V270.06H623.312V274.532H628.408V275.988H623.312V284.438C623.312 285.859 624.022 286.57 625.444 286.57H628.668V287.324L627.784 288H625.496C622.948 288 621.674 286.726 621.674 284.178ZM645.673 284.178V270.06H647.311V274.532H652.407V275.988H647.311V284.438C647.311 285.859 648.022 286.57 649.443 286.57H652.667V287.324L651.783 288H649.495C646.947 288 645.673 286.726 645.673 284.178ZM659.63 288V268.76H661.268V274.532H666.832C669.363 274.532 670.628 275.806 670.628 278.354V288H668.99V278.094C668.99 276.69 668.288 275.988 666.884 275.988H661.268V288H659.63ZM678.506 284.178V278.354C678.506 275.806 679.78 274.532 682.328 274.532H685.708C688.238 274.532 689.504 275.806 689.504 278.354V281.916H680.144V284.438C680.144 285.859 680.854 286.57 682.276 286.57H688.984V287.324L688.1 288H682.328C679.78 288 678.506 286.726 678.506 284.178ZM680.144 280.538H687.866V278.094C687.866 276.69 687.164 275.988 685.76 275.988H682.276C680.854 275.988 680.144 276.69 680.144 278.094V280.538ZM707.535 284.178V270.06H709.173V274.532H714.269V275.988H709.173V284.438C709.173 285.859 709.883 286.57 711.305 286.57H714.529V287.324L713.645 288H711.357C708.809 288 707.535 286.726 707.535 284.178ZM721.284 284.178V278.354C721.284 275.806 722.558 274.532 725.106 274.532H728.486C731.017 274.532 732.282 275.806 732.282 278.354V281.916H722.922V284.438C722.922 285.859 723.633 286.57 725.054 286.57H731.762V287.324L730.878 288H725.106C722.558 288 721.284 286.726 721.284 284.178ZM722.922 280.538H730.644V278.094C730.644 276.69 729.942 275.988 728.538 275.988H725.054C723.633 275.988 722.922 276.69 722.922 278.094V280.538ZM739.725 287.324V286.57H745.757C747.143 286.57 747.837 285.877 747.837 284.49C747.837 283.103 747.282 282.323 746.173 282.15L743.001 281.604C740.817 281.24 739.725 280.087 739.725 278.146C739.725 275.737 741.007 274.532 743.573 274.532H747.967L748.851 275.208V275.988H743.469C742.065 275.988 741.363 276.673 741.363 278.042C741.363 279.255 741.943 279.957 743.105 280.148L746.303 280.694C748.417 281.041 749.475 282.271 749.475 284.386C749.475 286.795 748.192 288 745.627 288H740.609L739.725 287.324ZM757.016 284.178V270.06H758.654V274.532H763.75V275.988H758.654V284.438C758.654 285.859 759.365 286.57 760.786 286.57H764.01V287.324L763.126 288H760.838C758.29 288 757.016 286.726 757.016 284.178Z" fill="#A89CBA"/>
<path d="M297.161 354V342.04C297.768 341.035 298.869 340.532 300.463 340.532H303.011L303.895 341.208V341.988H300.541C299.744 341.988 299.163 342.205 298.799 342.638V354H297.161ZM310.403 350.178V344.354C310.403 341.806 311.677 340.532 314.225 340.532H317.605C320.135 340.532 321.401 341.806 321.401 344.354V347.916H312.041V350.438C312.041 351.859 312.751 352.57 314.173 352.57H320.881V353.324L319.997 354H314.225C311.677 354 310.403 352.726 310.403 350.178ZM312.041 346.538H319.763V344.094C319.763 342.69 319.061 341.988 317.657 341.988H314.173C312.751 341.988 312.041 342.69 312.041 344.094V346.538ZM329.286 350.178V336.06H330.924V340.532H336.02V341.988H330.924V350.438C330.924 351.859 331.634 352.57 333.056 352.57H336.28V353.324L335.396 354H333.108C330.56 354 329.286 352.726 329.286 350.178ZM343.139 350.178V340.532H344.777V350.438C344.777 351.859 345.487 352.57 346.909 352.57H352.499V340.532H354.137V354H346.961C344.413 354 343.139 352.726 343.139 350.178ZM362.222 354V342.04C362.829 341.035 363.93 340.532 365.524 340.532H368.072L368.956 341.208V341.988H365.602C364.805 341.988 364.224 342.205 363.86 342.638V354H362.222ZM375.672 354V340.532H382.874C385.404 340.532 386.67 341.806 386.67 344.354V354H385.032V344.094C385.032 342.69 384.33 341.988 382.926 341.988H377.31V354H375.672ZM394.209 353.324V352.57H400.241C401.628 352.57 402.321 351.877 402.321 350.49C402.321 349.103 401.767 348.323 400.657 348.15L397.485 347.604C395.301 347.24 394.209 346.087 394.209 344.146C394.209 341.737 395.492 340.532 398.057 340.532H402.451L403.335 341.208V341.988H397.953C396.549 341.988 395.847 342.673 395.847 344.042C395.847 345.255 396.428 345.957 397.589 346.148L400.787 346.694C402.902 347.041 403.959 348.271 403.959 350.386C403.959 352.795 402.677 354 400.111 354H395.093L394.209 353.324ZM410.512 357.744H423.512V359.2H410.512V357.744ZM430.04 353.324V352.57H436.072C437.459 352.57 438.152 351.877 438.152 350.49C438.152 349.103 437.598 348.323 436.488 348.15L433.316 347.604C431.132 347.24 430.04 346.087 430.04 344.146C430.04 341.737 431.323 340.532 433.888 340.532H438.282L439.166 341.208V341.988H433.784C432.38 341.988 431.678 342.673 431.678 344.042C431.678 345.255 432.259 345.957 433.42 346.148L436.618 346.694C438.733 347.041 439.79 348.271 439.79 350.386C439.79 352.795 438.508 354 435.942 354H430.924L430.04 353.324ZM447.228 350.178V344.354C447.228 341.806 448.502 340.532 451.05 340.532H454.69C457.22 340.532 458.486 341.806 458.486 344.354V350.178C458.486 352.726 457.22 354 454.69 354H451.05C448.502 354 447.228 352.726 447.228 350.178ZM448.866 350.438C448.866 351.859 449.576 352.57 450.998 352.57H454.742C456.146 352.57 456.848 351.859 456.848 350.438V344.094C456.848 342.69 456.146 341.988 454.742 341.988H450.998C449.576 341.988 448.866 342.69 448.866 344.094V350.438ZM466.468 354V340.532H481.73C484.261 340.532 485.526 341.806 485.526 344.354V354H483.888V344.094C483.888 342.69 483.186 341.988 481.782 341.988H476.816V354H475.178V341.988H468.106V354H466.468ZM493.393 350.178V344.354C493.393 341.806 494.667 340.532 497.215 340.532H500.595C503.126 340.532 504.391 341.806 504.391 344.354V347.916H495.031V350.438C495.031 351.859 495.742 352.57 497.163 352.57H503.871V353.324L502.987 354H497.215C494.667 354 493.393 352.726 493.393 350.178ZM495.031 346.538H502.753V344.094C502.753 342.69 502.051 341.988 500.647 341.988H497.163C495.742 341.988 495.031 342.69 495.031 344.094V346.538ZM512.276 350.178V336.06H513.914V340.532H519.01V341.988H513.914V350.438C513.914 351.859 514.624 352.57 516.046 352.57H519.27V353.324L518.386 354H516.098C513.55 354 512.276 352.726 512.276 350.178ZM526.233 354V334.76H527.871V340.532H533.435C535.966 340.532 537.231 341.806 537.231 344.354V354H535.593V344.094C535.593 342.69 534.891 341.988 533.487 341.988H527.871V354H526.233ZM545.213 337.958V335.826H547.085V337.958H545.213ZM545.317 354V340.532H546.955V354H545.317ZM555.133 354V340.532H562.335C564.865 340.532 566.131 341.806 566.131 344.354V354H564.493V344.094C564.493 342.69 563.791 341.988 562.387 341.988H556.771V354H555.133ZM574.034 350.178V344.354C574.034 341.806 575.308 340.532 577.856 340.532H585.058V355.378C585.058 357.926 583.784 359.2 581.236 359.2H575.932L575.048 358.524V357.77H581.288C582.709 357.77 583.42 357.059 583.42 355.638V354H577.856C575.308 354 574.034 352.726 574.034 350.178ZM575.672 350.438C575.672 351.859 576.383 352.57 577.804 352.57H583.42V341.988H577.804C576.383 341.988 575.672 342.69 575.672 344.094V350.438Z" fill="#FF9000"/>
<path d="M804.946 354V338.582C804.946 336.034 806.22 334.76 808.768 334.76H811.056L811.94 335.436V336.19H808.716C807.294 336.19 806.584 336.901 806.584 338.322V340.532H811.68V341.988H806.584V354H804.946ZM818.286 350.178V344.354C818.286 341.806 819.56 340.532 822.108 340.532H825.488C828.019 340.532 829.284 341.806 829.284 344.354V347.916H819.924V350.438C819.924 351.859 820.635 352.57 822.056 352.57H828.764V353.324L827.88 354H822.108C819.56 354 818.286 352.726 818.286 350.178ZM819.924 346.538H827.646V344.094C827.646 342.69 826.944 341.988 825.54 341.988H822.056C820.635 341.988 819.924 342.69 819.924 344.094V346.538ZM837.169 350.698V334.76H838.807V350.828C838.807 352.076 839.44 352.726 840.705 352.778V354.208C838.348 354.208 837.169 353.038 837.169 350.698ZM847.442 350.178V336.06H849.08V340.532H854.176V341.988H849.08V350.438C849.08 351.859 849.791 352.57 851.212 352.57H854.436V353.324L853.552 354H851.264C848.716 354 847.442 352.726 847.442 350.178ZM379.959 383.438V382.008L386.121 369.06H387.551L387.785 369.502L381.883 381.878H389.761V375.82H391.503V387H389.761V383.438H379.959ZM398.89 387V381.644C398.89 379.529 399.817 378.281 401.672 377.9L407.158 376.808C408.18 376.6 408.692 375.933 408.692 374.806V372.674C408.692 371.322 408.007 370.646 406.638 370.646H399.41V369.84L400.424 369.06H406.56C409.142 369.06 410.434 370.351 410.434 372.934V374.624C410.434 376.739 409.506 377.987 407.652 378.368L402.166 379.46C401.143 379.668 400.632 380.335 400.632 381.462V385.414H410.434V387H398.89Z" fill="#D442FF"/>
<path d="M127.049 90V86.62H131.027V75.44H127.699V73.412L129.441 72.06H134.771V86.62H138.333V90H127.049ZM126.321 123V117.15C126.321 114.775 127.361 113.38 129.441 112.964L134.251 112.002C134.684 111.915 134.901 111.629 134.901 111.144V109.22C134.901 108.7 134.641 108.44 134.121 108.44H126.841V106.412L128.583 105.06H134.277C137.189 105.06 138.645 106.516 138.645 109.428V111.118C138.645 113.493 137.605 114.888 135.525 115.304L130.715 116.266C130.281 116.353 130.065 116.639 130.065 117.124V119.62H138.645V123H126.321ZM126.581 154.648V152.62H134.121C134.641 152.62 134.901 152.36 134.901 151.84V149.24C134.901 148.72 134.641 148.46 134.121 148.46H128.505V145.08H134.121C134.641 145.08 134.901 144.82 134.901 144.3V142.22C134.901 141.7 134.641 141.44 134.121 141.44H126.841V139.412L128.583 138.06H134.277C137.189 138.06 138.645 139.516 138.645 142.428V144.092C138.645 144.785 138.428 145.349 137.995 145.782L137.085 146.692L137.995 147.602C138.428 148.035 138.645 148.599 138.645 149.292V151.632C138.645 154.544 137.189 156 134.277 156H128.323L126.581 154.648ZM126.321 186.348V183.28L131.807 171.06H134.979L135.421 171.84L130.429 182.968H134.901V177.82H138.645V189H134.901V186.348H126.321ZM126.061 220.648V218.62H134.121C134.641 218.62 134.901 218.36 134.901 217.84V214.98C134.901 214.46 134.641 214.2 134.121 214.2H126.321V204.06H137.865V207.44H130.065V210.82H134.277C137.189 210.82 138.645 212.276 138.645 215.188V217.632C138.645 220.544 137.189 222 134.277 222H127.803L126.061 220.648ZM126.321 250.632V242.312C126.321 238.811 128.071 237.06 131.573 237.06H135.863L137.605 238.412V240.44H131.469C130.533 240.44 130.065 240.908 130.065 241.844V243.82H134.277C137.189 243.82 138.645 245.276 138.645 248.188V250.632C138.645 253.544 137.189 255 134.277 255H130.689C127.777 255 126.321 253.544 126.321 250.632ZM130.065 250.84C130.065 251.36 130.325 251.62 130.845 251.62H134.121C134.641 251.62 134.901 251.36 134.901 250.84V247.98C134.901 247.46 134.641 247.2 134.121 247.2H130.065V250.84ZM126.321 273.44V270.06H138.645V275.65L132.171 288H128.817L128.375 287.22L134.901 274.87V273.44H126.321ZM126.321 316.632V314.318C126.321 313.625 126.537 313.061 126.971 312.628L127.881 311.718L126.971 310.808C126.537 310.375 126.321 309.811 126.321 309.118V307.428C126.321 304.516 127.777 303.06 130.689 303.06H134.277C137.189 303.06 138.645 304.516 138.645 307.428V309.118C138.645 309.811 138.428 310.375 137.995 310.808L137.085 311.718L137.995 312.628C138.428 313.061 138.645 313.625 138.645 314.318V316.632C138.645 319.544 137.189 321 134.277 321H130.689C127.777 321 126.321 319.544 126.321 316.632ZM130.065 316.84C130.065 317.36 130.325 317.62 130.845 317.62H134.121C134.641 317.62 134.901 317.36 134.901 316.84V314.24C134.901 313.72 134.641 313.46 134.121 313.46H130.845C130.325 313.46 130.065 313.72 130.065 314.24V316.84ZM130.065 309.3C130.065 309.82 130.325 310.08 130.845 310.08H134.121C134.641 310.08 134.901 309.82 134.901 309.3V307.22C134.901 306.7 134.641 306.44 134.121 306.44H130.845C130.325 306.44 130.065 306.7 130.065 307.22V309.3ZM126.321 342.872V340.428C126.321 337.516 127.777 336.06 130.689 336.06H134.277C137.189 336.06 138.645 337.516 138.645 340.428V348.748C138.645 352.249 136.894 354 133.393 354H128.843L127.101 352.648V350.62H133.497C134.433 350.62 134.901 350.152 134.901 349.216V347.24H130.689C127.777 347.24 126.321 345.784 126.321 342.872ZM130.065 343.08C130.065 343.6 130.325 343.86 130.845 343.86H134.901V340.22C134.901 339.7 134.641 339.44 134.121 339.44H130.845C130.325 339.44 130.065 339.7 130.065 340.22V343.08ZM108.117 387V383.62H112.095V372.44H108.767V370.412L110.509 369.06H115.839V383.62H119.401V387H108.117ZM126.321 382.632V373.428C126.321 370.516 127.777 369.06 130.689 369.06H134.277C137.189 369.06 138.645 370.516 138.645 373.428V382.632C138.645 385.544 137.189 387 134.277 387H130.689C127.777 387 126.321 385.544 126.321 382.632ZM130.065 382.84C130.065 383.36 130.325 383.62 130.845 383.62H134.121C134.641 383.62 134.901 383.36 134.901 382.84V373.22C134.901 372.7 134.641 372.44 134.121 372.44H130.845C130.325 372.44 130.065 372.7 130.065 373.22V382.84ZM108.117 420V416.62H112.095V405.44H108.767V403.412L110.509 402.06H115.839V416.62H119.401V420H108.117ZM127.049 420V416.62H131.027V405.44H127.699V403.412L129.441 402.06H134.771V416.62H138.333V420H127.049ZM108.117 453V449.62H112.095V438.44H108.767V436.412L110.509 435.06H115.839V449.62H119.401V453H108.117ZM126.321 453V447.15C126.321 444.775 127.361 443.38 129.441 442.964L134.251 442.002C134.684 441.915 134.901 441.629 134.901 441.144V439.22C134.901 438.7 134.641 438.44 134.121 438.44H126.841V436.412L128.583 435.06H134.277C137.189 435.06 138.645 436.516 138.645 439.428V441.118C138.645 443.493 137.605 444.888 135.525 445.304L130.715 446.266C130.281 446.353 130.065 446.639 130.065 447.124V449.62H138.645V453H126.321Z" fill="#A89CBA"/>
<defs>
<filter id="filter0_d_41_6" x="0" y="0" width="1018" height="566" filterUnits="userSpaceOnUse" color-interpolation-filters="sRGB">
<feFlood flood-opacity="0" result="BackgroundImageFix"/>
<feColorMatrix in="SourceAlpha" type="matrix" values="0 0 0 0 0 0 0 0 0 0 0 0 0 0 0 0 0 0 127 0" result="hardAlpha"/>
<feMorphology radius="1" operator="dilate" in="SourceAlpha" result="effect1_dropShadow_41_6"/>
<feOffset dy="14"/>
<feGaussianBlur stdDeviation="27"/>
<feComposite in2="hardAlpha" operator="out"/>
<feColorMatrix type="matrix" values="0 0 0 0 0 0 0 0 0 0 0 0 0 0 0 0 0 0 0.25 0"/>
<feBlend mode="normal" in2="BackgroundImageFix" result="effect1_dropShadow_41_6"/>
<feBlend mode="normal" in="SourceGraphic" in2="effect1_dropShadow_41_6" result="shape"/>
</filter>
</defs>
</svg>
